<svg id="Component_7_1" data-name="Component 7 – 1" xmlns="http://www.w3.org/2000/svg" width="1em" height="1em" viewBox="0 0 132.483 150">
  <path fill="currentColor" id="Subtraction_1" data-name="Subtraction 1" d="M29.228,150H5.278a5.278,5.278,0,0,1,0-10.555h6.7V5.278a5.278,5.278,0,0,1,10.555,0V7.106A95.574,95.574,0,0,1,42.619,5.278c10.568,0,20.554,2.129,30.211,4.188l.133.028c1.588.338,3.2.7,4.761,1.042,7.858,1.746,15.983,3.55,24.679,3.55,6.871,0,18.243-1.369,22.813-1.958,1.391-.159,2.665-.356,3.728-.527a3.046,3.046,0,0,1,3.539,2.975v72.13a2.97,2.97,0,0,1-.748,1.967,3.1,3.1,0,0,1-1.85,1.007,180.049,180.049,0,0,1-27.03,2.484c-11.486,0-19.4-1.724-27.781-3.548l-.016,0c-1.17-.255-2.38-.518-3.6-.777-3.1-.659-6.192-1.5-9.182-2.315C55.919,83.791,49.346,82,42.619,82A92.036,92.036,0,0,0,24.926,83.47a3.063,3.063,0,0,0-2.409,2.974v53h6.711a5.278,5.278,0,0,1,0,10.555ZM50.884,40.057a3.039,3.039,0,0,0-2.163.9L44.4,45.279a3.059,3.059,0,0,0,0,4.325L64.278,69.486a3.058,3.058,0,0,0,4.325,0L103.78,34.311a3.063,3.063,0,0,0,0-4.326l-4.326-4.325a3.059,3.059,0,0,0-4.325,0L66.441,54.347,53.047,40.953A3.039,3.039,0,0,0,50.884,40.057Z" transform="translate(0 0)"/>
</svg>
