<svg id="Icon_awesome-user-plus" data-name="Icon awesome-user-plus" xmlns="http://www.w3.org/2000/svg" width="1.4em" height="1.4em" viewBox="0 0 25.385 20.308">
  <path id="Icon_awesome-user-plus-2" data-name="Icon awesome-user-plus" d="M24.75,8.25H22.212V5.712a.636.636,0,0,0-.635-.635H20.308a.636.636,0,0,0-.635.635V8.25H17.135a.636.636,0,0,0-.635.635v1.269a.636.636,0,0,0,.635.635h2.538v2.538a.636.636,0,0,0,.635.635h1.269a.636.636,0,0,0,.635-.635V10.789H24.75a.636.636,0,0,0,.635-.635V8.885A.636.636,0,0,0,24.75,8.25Zm-15.865,1.9A5.077,5.077,0,1,0,3.808,5.077,5.077,5.077,0,0,0,8.885,10.154Zm3.554,1.269h-.662a6.9,6.9,0,0,1-5.783,0H5.331A5.332,5.332,0,0,0,0,16.754V18.4a1.9,1.9,0,0,0,1.9,1.9H15.865a1.9,1.9,0,0,0,1.9-1.9v-1.65A5.332,5.332,0,0,0,12.439,11.423Z" fill="currentColor"/>
</svg>
