<svg id="Icon_awesome-book-open" data-name="Icon awesome-book-open" xmlns="http://www.w3.org/2000/svg" width="1em" height="1em" viewBox="0 0 50 38.89">
  <path fill="currentColor" id="Icon_awesome-book-open-2" data-name="Icon awesome-book-open" d="M47.069,2.254c-4.757.27-14.212,1.253-20.049,4.826a1.335,1.335,0,0,0-.631,1.143V39.81a1.374,1.374,0,0,0,2.021,1.171c6.005-3.023,14.69-3.847,18.985-4.073A2.707,2.707,0,0,0,50,34.246V4.919a2.721,2.721,0,0,0-2.931-2.665ZM22.98,7.08C17.144,3.507,7.689,2.525,2.932,2.254A2.723,2.723,0,0,0,0,4.919V34.247a2.706,2.706,0,0,0,2.606,2.662c4.3.226,12.985,1.051,18.991,4.076a1.37,1.37,0,0,0,2.015-1.168V8.208A1.307,1.307,0,0,0,22.98,7.08Z" transform="translate(0 -2.25)"/>
</svg>
